<svg width="1839" height="1839" viewBox="0 0 1839 1839" fill="none" xmlns="http://www.w3.org/2000/svg">
<g clip-path="url(#clip0_2_134)">
<path fill-rule="evenodd" clip-rule="evenodd" d="M1684.27 408.568C1785.29 559.747 1839.2 737.486 1839.2 919.308C1839.21 1040.04 1815.45 1159.59 1769.25 1271.13C1723.06 1382.67 1655.34 1484.02 1569.97 1569.39C1484.6 1654.76 1383.26 1722.47 1271.71 1768.67C1160.17 1814.86 1040.62 1838.63 919.894 1838.62C738.072 1838.62 560.334 1784.7 409.154 1683.68C257.975 1582.67 140.145 1439.09 70.5645 1271.11C0.984287 1103.13 -17.2211 918.288 18.2506 739.96C53.7223 561.632 141.278 397.827 269.845 269.259C398.413 140.692 562.218 53.1363 740.546 17.6646C918.874 -17.807 1103.72 0.398349 1271.7 69.9786C1439.68 139.559 1583.26 257.389 1684.27 408.568ZM1462.9 832.422C1483.86 844.962 1504.11 858.628 1523.59 873.358L1524 873.665C1524.01 873.935 1524.05 874.299 1524.11 874.75C1524.61 878.916 1526.02 890.516 1509.77 904.366C1491.76 919.717 1458.6 943.971 1458.6 943.971C1459.73 951.075 1461.9 957.972 1465.05 964.439C1466.1 966.472 1467.51 968.723 1469.02 971.132C1474.11 979.271 1480.33 989.199 1477.64 998.518C1476.25 1003.36 1471.47 1007.77 1466.69 1012.18C1459.55 1018.76 1452.43 1025.34 1456.66 1033.31C1459.47 1038.61 1463.91 1042.45 1467.91 1045.91C1473.96 1051.14 1479.02 1055.52 1476 1062.79C1473.91 1067.83 1468.46 1074.38 1463.01 1080.95C1455.39 1090.12 1447.76 1099.31 1449.19 1104.44C1451.65 1113.24 1471.29 1195.72 1425.96 1210.15C1391.88 1220.9 1298.24 1227.04 1254.34 1229.39C1244.99 1229.9 1235.92 1232.77 1227.99 1237.75C1220.06 1242.73 1213.52 1249.64 1209 1257.84C1200.28 1274.23 1194.56 1292.04 1192.12 1310.45C1183.62 1368.88 1125.9 1502.94 1125.9 1502.94C1125.9 1502.94 1123.14 1509.19 1120.38 1515.74C1118.59 1519.97 1115.88 1523.75 1112.45 1526.79C1109.01 1529.84 1104.94 1532.08 1100.52 1533.34C966.904 1570.2 825.17 1564.94 694.647 1518.3C690.689 1516.91 687.057 1514.72 683.976 1511.88C680.895 1509.03 678.43 1505.58 676.732 1501.75C675.035 1497.91 674.142 1493.77 674.107 1489.57C674.073 1485.38 674.899 1481.22 676.533 1477.36C688.302 1450.24 698.229 1423.12 705.495 1401.42C708.259 1392.01 711.84 1382.8 715.729 1373.59C726.987 1346.98 750.115 1293.15 765.67 1260.3C931.152 1296.94 1031.75 1204.63 1057.85 1176.48C1058.64 1175.62 1059.21 1174.57 1059.48 1173.43C1059.76 1172.29 1059.75 1171.09 1059.44 1169.96C1059.14 1168.82 1058.55 1167.79 1057.73 1166.94C1056.92 1166.1 1055.9 1165.47 1054.78 1165.12C970.654 1136.78 862.176 1158.37 787.98 1214.45C811.518 1167.07 838.228 1117.44 867.19 1068.41C1039.53 1092.16 1130.81 989.819 1153.74 959.117C1154.43 958.191 1154.88 957.107 1155.05 955.962C1155.22 954.818 1155.1 953.649 1154.71 952.562C1154.31 951.475 1153.65 950.503 1152.78 949.736C1151.92 948.969 1150.87 948.43 1149.75 948.167C1069.92 928.825 973.827 954 905.363 1007.63C925.216 976.924 945.888 947.041 967.482 918.694C1024.66 893.183 1074.1 853.04 1110.81 802.316C1147.52 751.592 1170.2 692.082 1176.56 629.792C1176.67 628.637 1176.48 627.475 1176.01 626.413C1175.55 625.351 1174.82 624.423 1173.9 623.718C1172.98 623.013 1171.9 622.552 1170.75 622.379C1169.61 622.207 1168.44 622.327 1167.35 622.73C1126.72 636.955 971.985 703.987 941.283 908.664C929.924 923.913 912.424 948.269 890.83 981.222C920.509 857.904 872.614 771.531 854.909 745.332C854.278 744.361 853.413 743.562 852.394 743.01C851.376 742.457 850.235 742.168 849.076 742.168C847.918 742.168 846.777 742.457 845.758 743.01C844.739 743.562 843.875 744.361 843.243 745.332C815.53 792.241 801.107 845.809 801.522 900.292C801.936 954.775 817.172 1008.12 845.597 1054.6C822.059 1094.31 796.372 1140.87 769.866 1193.78C778.872 1049.89 702.323 970.272 677.147 948.167C676.285 947.394 675.241 946.852 674.113 946.592C672.985 946.331 671.809 946.361 670.695 946.678C669.582 946.994 668.566 947.588 667.744 948.403C666.922 949.218 666.319 950.229 665.992 951.34C650.389 1003.27 649.313 1058.49 662.881 1110.99C676.448 1163.49 704.141 1211.27 742.951 1249.14C727.907 1281.07 712.966 1315.05 698.127 1350.77L695.466 1349.85C674.404 1343.53 654.221 1334.59 635.393 1323.24C619.921 1314 603.483 1306.48 586.373 1300.83C538.138 1285.07 529.646 1264.01 515.712 1229.45C510.282 1215.99 504.025 1200.47 494.268 1182.42C483.101 1169.02 471.177 1156.28 458.552 1144.25C446.719 1136.6 437.06 1126.02 430.511 1113.55C422.973 1098.17 418.094 1081.63 416.082 1064.63C416 1055.24 412.917 1046.12 407.282 1038.61C401.648 1031.09 393.758 1025.58 384.766 1022.87C295.205 991.998 323.376 884.042 331.797 851.773C332.642 848.534 333.289 846.057 333.597 844.498C335.81 833.737 329.315 813.527 323.917 796.73C322.077 791.005 320.364 785.676 319.167 781.253C318.758 779.206 318.246 776.648 317.53 773.475C314.848 760.258 315.303 746.596 318.858 733.586C322.413 720.576 328.968 708.581 337.997 698.563C343.483 693.403 354.925 686.51 366.566 679.498C380.55 671.074 394.821 662.478 399.401 656.502C403.284 651.434 406.795 646.038 410.309 640.637C414.388 634.368 418.47 628.093 423.143 622.321C434.912 608.096 469.503 580.26 516.783 554.88C535.64 544.809 544.23 523.981 551.044 507.459C554.548 498.965 557.582 491.609 561.3 487.439C571.214 476.272 583.824 471.049 596.615 465.751C607.856 461.095 619.236 456.382 629.048 447.527C634.02 443.037 639.971 439.641 645.945 436.232C652.637 432.413 659.358 428.577 664.765 423.17C713.375 373.434 778.565 353.273 842.936 341.299C878.683 334.402 917.679 341.746 955.662 348.898C963.894 350.449 972.079 351.99 980.172 353.375C986.626 354.539 993.014 356.042 999.309 357.878C1101.14 361.358 1223.84 382.542 1268.15 425.831C1290.04 447.129 1306.41 473.438 1315.84 502.483C1323.21 525.102 1333.27 546.75 1345.83 566.956L1373.05 611.371C1390.36 639.394 1395.95 673.105 1388.61 705.215C1384.31 723.534 1382.06 743.081 1387.58 753.314C1396.08 769.996 1422.17 797.115 1437.83 812.568C1445.47 820.051 1453.87 826.706 1462.9 832.422Z" fill="black"/>
</g>
<defs>
<clipPath id="clip0_2_134">
<rect width="1839" height="1839" fill="white"/>
</clipPath>
</defs>
</svg>
