<svg width="14" height="14" viewBox="0 0 14 14" fill="none" xmlns="http://www.w3.org/2000/svg">
<path d="M10 4.65625H7.75C7.12866 4.65625 6.625 4.1106 6.625 3.4375V1M10 4.5517V9.53125C10 10.2044 9.49634 10.75 8.875 10.75H4.375C3.75368 10.75 3.25 10.2044 3.25 9.53125V2.21875C3.25 1.54565 3.75368 1 4.375 1H6.72153C7.01988 1 7.30602 1.1284 7.51701 1.35697L9.67049 3.68991C9.88148 3.91847 10 4.22846 10 4.5517Z" stroke="#A9D8B4" stroke-width="2" stroke-linecap="round"/>
<path d="M2.6875 3.25H2.125C1.50368 3.25 1 3.79565 1 4.46875V11.7812C1 12.4544 1.50368 13 2.125 13H6.625C7.24634 13 7.75 12.4544 7.75 11.7812V11.1719" stroke="#A9D8B4" stroke-width="2" stroke-linecap="round"/>
</svg>
