<svg width="37" height="30" viewBox="0 0 37 30" fill="none" xmlns="http://www.w3.org/2000/svg">
<g clip-path="url(#clip0_752_2923)">
<path d="M29.026 6.78145L29.0335 6.76458C29.821 4.84657 28.9023 2.63796 26.9881 1.84301C26.5269 1.65177 26.0395 1.55428 25.5426 1.55428C25.3233 1.55428 25.1058 1.57303 24.8902 1.6124C24.4853 1.03306 23.9191 0.569964 23.2441 0.290607C22.7811 0.0974939 22.2936 0 21.7968 0C20.2707 0 18.904 0.909318 18.3134 2.31548V2.32111L16.9392 1.75114C16.9392 1.75114 16.9392 1.75114 16.9373 1.75114C16.7667 1.6799 16.5942 1.61427 16.4217 1.5524C16.388 1.53928 16.3542 1.52803 16.3205 1.51491C16.1536 1.45491 15.9849 1.40054 15.818 1.34804C15.7862 1.33867 15.7562 1.32929 15.7243 1.31992C15.5668 1.27305 15.4112 1.22992 15.2537 1.19055C15.2312 1.18493 15.2087 1.1793 15.1862 1.17368C15.0194 1.13243 14.8506 1.09493 14.6838 1.06118C14.6407 1.05181 14.5994 1.04431 14.5563 1.03681C14.3913 1.00494 14.2263 0.976814 14.0613 0.952441C14.0276 0.946816 13.992 0.943066 13.9582 0.939316C13.8176 0.920568 13.6789 0.901819 13.5383 0.888694C13.4914 0.88307 13.4464 0.87932 13.3995 0.873695C13.2439 0.858696 13.0902 0.847447 12.9346 0.839948C12.8765 0.836198 12.8202 0.834323 12.7621 0.832448C12.6346 0.826823 12.5071 0.824948 12.3796 0.823074C12.3459 0.823074 12.3122 0.821199 12.2784 0.821199C12.179 0.821199 12.0778 0.824948 11.9784 0.826823C11.9578 0.826823 11.9391 0.826823 11.9184 0.826823C11.821 0.830573 11.7235 0.834323 11.6278 0.839948C11.5979 0.839948 11.566 0.843697 11.536 0.845572C11.4366 0.851197 11.3373 0.858696 11.2379 0.868071C11.2173 0.868071 11.1966 0.871821 11.176 0.873695C7.95511 1.16805 4.93292 2.74295 2.85189 5.29092C2.84626 5.29842 2.83876 5.30779 2.83314 5.31529C2.75065 5.41654 2.66816 5.52153 2.58941 5.62652C2.57629 5.6434 2.56317 5.66027 2.55192 5.67715C2.4788 5.77464 2.40568 5.87401 2.33632 5.97338C2.31757 5.99963 2.29882 6.02775 2.28007 6.054C2.21633 6.14587 2.15259 6.23774 2.09072 6.33335C2.06634 6.37085 2.04197 6.41022 2.0176 6.44772C1.96323 6.53397 1.90886 6.61834 1.85637 6.70646C1.82637 6.75708 1.79825 6.8077 1.76825 6.85832C1.72326 6.93519 1.67826 7.01394 1.63326 7.09268C1.59764 7.15643 1.5639 7.22205 1.53015 7.28767C1.49453 7.35517 1.45703 7.42266 1.42329 7.49016C1.38017 7.5764 1.33892 7.66452 1.2958 7.75264C1.27143 7.80326 1.24705 7.85201 1.22456 7.90263C1.16081 8.04325 1.09895 8.18386 1.03895 8.32823C0.150294 10.4581 -0.0821817 12.7005 0.244034 14.8284C0.838347 18.6963 3.28684 22.1892 7.03645 23.9741C7.22393 24.0641 7.41516 24.1485 7.60827 24.2291L11.3822 25.7946L13.3902 26.6271L19.2677 29.0663C20.7919 29.7 22.3724 29.9981 23.9266 29.9981C28.6979 29.9981 33.2256 27.1727 35.1698 22.4911C37.6858 16.4296 34.9354 9.50003 29.0242 6.77958L29.026 6.78145ZM17.2973 26.6608L13.5233 25.0953C17.8185 24.6491 21.7405 21.923 23.5122 17.6539C25.2839 13.3848 24.444 8.68258 21.7274 5.32654L25.5014 6.89207C28.218 10.25 29.0579 14.9503 27.2862 19.2194C25.5145 23.4885 21.5924 26.2146 17.2973 26.6608ZM13.9432 13.4335C13.9432 13.4335 13.9432 13.4392 13.9414 13.441C13.9414 13.441 13.9414 13.4429 13.9414 13.4448C13.9414 13.4448 13.9414 13.4467 13.9414 13.4485C13.9414 13.4504 13.9376 13.4542 13.9376 13.456C13.767 13.8423 13.317 14.0241 12.9252 13.8629C12.5334 13.6998 12.344 13.2535 12.4978 12.8598C12.4978 12.8579 12.4978 12.8542 12.4996 12.8523C12.4996 12.8523 12.4996 12.8504 12.4996 12.8486C12.4996 12.8486 12.4996 12.8467 12.4996 12.8448C12.4996 12.8429 12.5034 12.8392 12.5034 12.8373C12.674 12.4511 13.1239 12.2692 13.5158 12.4305C13.9076 12.5917 14.097 13.0398 13.9432 13.4335ZM10.0193 12.9592C10.4542 13.1392 10.9623 12.9723 11.2023 12.5692C11.281 12.4361 11.4535 12.393 11.5866 12.4717C11.7197 12.5505 11.7628 12.723 11.6841 12.8561C11.3016 13.4954 10.4955 13.7616 9.80554 13.4767C9.11749 13.1917 8.73502 12.4305 8.91876 11.7086C8.95625 11.5587 9.10811 11.4687 9.2581 11.5062C9.40808 11.5437 9.49807 11.6955 9.46057 11.8455C9.34621 12.2992 9.58619 12.7792 10.0193 12.9592ZM8.35444 11.1143C8.35444 11.1143 8.35444 11.1199 8.35256 11.1218C8.35256 11.1218 8.35256 11.1237 8.35069 11.1256C8.35069 11.1256 8.35069 11.1274 8.35069 11.1293C8.35069 11.1312 8.34694 11.1349 8.34694 11.1368C8.17633 11.523 7.72638 11.7049 7.33455 11.5437C6.94271 11.3805 6.75336 10.9343 6.90709 10.5406C6.90709 10.5387 6.90709 10.535 6.90896 10.5331C6.90896 10.5331 6.90896 10.5312 6.90896 10.5293C6.90896 10.5293 6.90896 10.5275 6.90896 10.5256C6.90896 10.5237 6.91271 10.52 6.91271 10.5181C7.08332 10.1319 7.53328 9.95 7.92511 10.1112C8.31694 10.2725 8.5063 10.7206 8.35256 11.1143H8.35444ZM21.7968 1.46616C22.0911 1.46616 22.3911 1.5224 22.6817 1.6424C23.4897 1.978 24.0053 2.71671 24.0934 3.52853C24.5021 3.20042 25.014 3.01856 25.5426 3.01856C25.837 3.01856 26.137 3.07481 26.4276 3.1948C27.6031 3.68227 28.1617 5.02844 27.6799 6.20586L19.667 2.87982C20.0382 1.99488 20.895 1.46241 21.7987 1.46241L21.7968 1.46616ZM33.818 21.9305C32.1532 25.9428 28.2724 28.5338 23.9284 28.5338C23.2104 28.5338 22.498 28.4607 21.7987 28.3182C25.9401 27.7501 29.6785 25.0653 31.3958 20.9274C33.1131 16.7915 32.3744 12.2505 29.8566 8.91882C34.0318 11.6936 35.8091 17.1327 33.8162 21.9324L33.818 21.9305Z" fill="black"/>
</g>
<defs>
<clipPath id="clip0_752_2923">
<rect width="36" height="30" fill="white" transform="translate(0.103516)"/>
</clipPath>
</defs>
</svg>
